/* XPM */
static char *_71ebfb890274c0eedd1e514f5029bd2ax9o8l6jeANfStRv[] = {
/* columns rows colors chars-per-pixel */
"32 32 48 1 ",
"  c black",
". c gray18",
"X c gray21",
"o c #232323",
"O c #090909",
"+ c gray17",
"@ c gray1",
"# c gray10",
"$ c #0B0B0B",
"% c #343434",
"& c LightGray",
"* c gray96",
"= c #9F9F9F",
"- c #2A2A2A",
"; c #C5C5C5",
": c gray5",
"> c #767676",
", c #ECECEC",
"< c #D2D2D2",
"1 c #5D5D5D",
"2 c gray80",
"3 c #A5A5A5",
"4 c #131313",
"5 c #6C6C6C",
"6 c gray47",
"7 c #9B9B9B",
"8 c #464646",
"9 c #898989",
"0 c #555555",
"q c gray9",
"w c #686868",
"e c #A2A2A2",
"r c gray86",
"t c gray65",
"y c gray55",
"u c #8B8B8B",
"i c gray37",
"p c #A4A4A4",
"a c gray84",
"s c #FDFDFD",
"d c #4B4B4B",
"f c gray91",
"g c #D7D7D7",
"h c #272727",
"j c #727272",
"k c #AFAFAF",
"l c #777777",
"z c gray61",
/* pixels */
"                                ",
"                                ",
"                                ",
"                                ",
"                                ",
"                                ",
"                                ",
"                                ",
"                                ",
"                                ",
"                                ",
"    .XoOXXXX+@ oXXXX# $%XXX.    ",
"    &*=-****;: =****> %,***<    ",
"    1234555567#8555590qw55er    ",
"     t3     X*+     yu    ir    ",
"     t3 $p22as+ d222fu    ir    ",
"     t3 $p22gs+ d222fu   hjk    ",
"     t3     X*+     yu   t3     ",
"     t345555lz#8555590   t3     ",
"     ==-****;: =****>    ==     ",
"     ooOXXXX+@ oXXXX#    oo     ",
"                                ",
"                                ",
"                                ",
"                                ",
"                                ",
"                                ",
"                                ",
"                                ",
"                                ",
"                                ",
"                                "
};
